<svg width="76" height="21" viewBox="0 0 76 21" fill="none" xmlns="http://www.w3.org/2000/svg">
<g clip-path="url(#clip0_183_413)">
<path d="M36.692 13.9579C36.692 14.8519 36.308 15.5839 35.54 16.1539C34.772 16.7179 33.638 16.9999 32.138 16.9999H26.423C26.279 16.9999 26.171 16.9729 26.099 16.9189C26.033 16.8589 26 16.7809 26 16.6849C26 16.5049 26.111 16.3849 26.333 16.3249L26.936 16.2169C27.08 16.1809 27.188 16.1239 27.26 16.0459C27.338 15.9679 27.377 15.8659 27.377 15.7399V5.6599C27.377 5.5339 27.338 5.4319 27.26 5.3539C27.188 5.2759 27.08 5.2189 26.936 5.1829L26.333 5.0749C26.111 5.0149 26 4.8949 26 4.7149C26 4.6129 26.033 4.5349 26.099 4.4809C26.171 4.4269 26.279 4.3999 26.423 4.3999H30.869C31.955 4.3999 32.879 4.5529 33.641 4.8589C34.403 5.1589 34.982 5.5789 35.378 6.1189C35.774 6.6529 35.972 7.2769 35.972 7.9909C35.972 8.5909 35.807 9.1309 35.477 9.6109C35.153 10.0849 34.664 10.4629 34.01 10.7449C33.362 11.0269 32.552 11.1679 31.58 11.1679L32.12 10.9249C33.056 10.9249 33.863 11.0569 34.541 11.3209C35.225 11.5789 35.753 11.9359 36.125 12.3919C36.503 12.8479 36.692 13.3699 36.692 13.9579ZM31.319 11.4109H28.871V10.8169H31.193C31.775 10.8169 32.27 10.7089 32.678 10.4929C33.092 10.2709 33.404 9.9559 33.614 9.5479C33.83 9.1339 33.938 8.6449 33.938 8.0809C33.938 7.4749 33.809 6.9469 33.551 6.4969C33.293 6.0469 32.915 5.6959 32.417 5.4439C31.919 5.1859 31.307 5.0569 30.581 5.0569H29.474V15.5599C29.474 15.8239 29.558 16.0219 29.726 16.1539C29.9 16.2799 30.158 16.3429 30.5 16.3429H31.715C32.345 16.3429 32.87 16.2409 33.29 16.0369C33.71 15.8329 34.025 15.5479 34.235 15.1819C34.451 14.8099 34.559 14.3869 34.559 13.9129C34.559 13.1629 34.286 12.5599 33.74 12.1039C33.194 11.6419 32.387 11.4109 31.319 11.4109Z" fill="black"/>
<path d="M40.944 4.1841V15.7761C40.944 15.9381 40.974 16.0611 41.034 16.1451C41.094 16.2231 41.181 16.2771 41.295 16.3071L41.709 16.3971C41.817 16.4271 41.895 16.4691 41.943 16.5231C41.991 16.5711 42.015 16.6341 42.015 16.7121C42.015 16.8021 41.982 16.8741 41.916 16.9281C41.856 16.9761 41.757 17.0001 41.619 17.0001H38.352C38.22 17.0001 38.121 16.9761 38.055 16.9281C37.995 16.8741 37.965 16.8021 37.965 16.7121C37.965 16.6341 37.989 16.5711 38.037 16.5231C38.085 16.4751 38.16 16.4361 38.262 16.4061L38.694 16.3071C38.814 16.2711 38.904 16.2171 38.964 16.1451C39.024 16.0671 39.054 15.9471 39.054 15.7851V5.4441C39.054 5.3121 39.03 5.2161 38.982 5.1561C38.94 5.0961 38.868 5.0601 38.766 5.0481L38.154 5.0301C38.052 5.0121 37.98 4.9821 37.938 4.9401C37.896 4.8981 37.875 4.8441 37.875 4.7781C37.875 4.7001 37.899 4.6371 37.947 4.5891C37.995 4.5351 38.085 4.4871 38.217 4.4451L39.729 3.9141C39.921 3.8421 40.074 3.7941 40.188 3.7701C40.302 3.7401 40.398 3.7251 40.476 3.7251C40.632 3.7251 40.749 3.7671 40.827 3.8511C40.905 3.9291 40.944 4.0401 40.944 4.1841Z" fill="black"/>
<path d="M47.8512 8.37793C48.7272 8.37793 49.5012 8.56693 50.1732 8.94493C50.8452 9.31693 51.3702 9.83593 51.7482 10.5019C52.1262 11.1679 52.3152 11.9359 52.3152 12.8059C52.3152 13.6519 52.1232 14.4079 51.7392 15.0739C51.3552 15.7339 50.8242 16.2559 50.1462 16.6399C49.4682 17.0179 48.6822 17.2069 47.7882 17.2069C46.9122 17.2069 46.1382 17.0179 45.4662 16.6399C44.8002 16.2619 44.2752 15.7399 43.8912 15.0739C43.5132 14.4079 43.3242 13.6459 43.3242 12.7879C43.3242 11.9299 43.5162 11.1709 43.9002 10.5109C44.2842 9.85093 44.8152 9.33193 45.4932 8.95393C46.1712 8.56993 46.9572 8.37793 47.8512 8.37793ZM48.4812 16.4509C48.9792 16.3789 49.3842 16.1749 49.6962 15.8389C50.0082 15.5029 50.2182 15.0469 50.3262 14.4709C50.4342 13.8949 50.4222 13.2199 50.2902 12.4459C50.1642 11.6599 49.9512 11.0089 49.6512 10.4929C49.3572 9.97693 48.9972 9.60493 48.5712 9.37693C48.1452 9.14293 47.6772 9.06193 47.1672 9.13393C46.6632 9.20593 46.2552 9.41293 45.9432 9.75493C45.6312 10.0909 45.4212 10.5469 45.3132 11.1229C45.2112 11.6929 45.2232 12.3679 45.3492 13.1479C45.4812 13.9279 45.6942 14.5789 45.9882 15.1009C46.2882 15.6169 46.6512 15.9889 47.0772 16.2169C47.5032 16.4449 47.9712 16.5229 48.4812 16.4509Z" fill="black"/>
<path d="M56.401 4.1841V15.8841L55.591 16.9461C55.393 17.0421 55.246 17.1081 55.15 17.1441C55.054 17.1801 54.958 17.1981 54.862 17.1981C54.76 17.1981 54.676 17.1651 54.61 17.0991C54.544 17.0391 54.511 16.9431 54.511 16.8111V5.4441C54.511 5.3121 54.487 5.2161 54.439 5.1561C54.397 5.0961 54.325 5.0601 54.223 5.0481L53.611 5.0301C53.509 5.0121 53.437 4.9821 53.395 4.9401C53.353 4.8981 53.332 4.8441 53.332 4.7781C53.332 4.7001 53.356 4.6371 53.404 4.5891C53.452 4.5351 53.542 4.4871 53.674 4.4451L55.186 3.9141C55.378 3.8421 55.531 3.7941 55.645 3.7701C55.759 3.7401 55.855 3.7251 55.933 3.7251C56.089 3.7251 56.206 3.7671 56.284 3.8511C56.362 3.9291 56.401 4.0401 56.401 4.1841ZM55.969 11.0241L55.681 10.5561C56.143 9.8661 56.677 9.3321 57.283 8.9541C57.889 8.5701 58.546 8.3781 59.254 8.3781C59.962 8.3781 60.592 8.5581 61.144 8.9181C61.702 9.2781 62.14 9.7761 62.458 10.4121C62.776 11.0481 62.935 11.7771 62.935 12.5991C62.935 13.5411 62.749 14.3571 62.377 15.0471C62.005 15.7371 61.501 16.2711 60.865 16.6491C60.235 17.0211 59.533 17.2071 58.759 17.2071C58.051 17.2071 57.418 17.0331 56.86 16.6851C56.308 16.3371 55.861 15.8421 55.519 15.2001L55.951 14.7591C56.257 15.2931 56.623 15.7011 57.049 15.9831C57.481 16.2651 57.946 16.4061 58.444 16.4061C58.918 16.4061 59.344 16.2741 59.722 16.0101C60.1 15.7461 60.397 15.3501 60.613 14.8221C60.835 14.2881 60.946 13.6191 60.946 12.8151C60.946 12.0471 60.841 11.4081 60.631 10.8981C60.421 10.3881 60.133 10.0041 59.767 9.7461C59.407 9.4821 58.99 9.3501 58.516 9.3501C58.036 9.3501 57.58 9.4911 57.148 9.7731C56.716 10.0491 56.323 10.4661 55.969 11.0241Z" fill="black"/>
<path d="M67.4362 8.90002V15.776C67.4362 15.938 67.4662 16.061 67.5262 16.145C67.5862 16.223 67.6732 16.277 67.7872 16.307L68.2012 16.397C68.3032 16.427 68.3782 16.469 68.4262 16.523C68.4802 16.571 68.5072 16.634 68.5072 16.712C68.5072 16.802 68.4742 16.874 68.4082 16.928C68.3422 16.976 68.2432 17 68.1112 17H64.8442C64.7122 17 64.6132 16.976 64.5472 16.928C64.4872 16.874 64.4572 16.802 64.4572 16.712C64.4572 16.634 64.4812 16.571 64.5292 16.523C64.5772 16.475 64.6522 16.436 64.7542 16.406L65.1862 16.307C65.3062 16.271 65.3962 16.217 65.4562 16.145C65.5162 16.067 65.5462 15.947 65.5462 15.785V10.169C65.5462 10.031 65.5222 9.93502 65.4742 9.88102C65.4322 9.82102 65.3602 9.78502 65.2582 9.77302L64.6462 9.74602C64.5442 9.72802 64.4722 9.69802 64.4302 9.65602C64.3882 9.61402 64.3672 9.56002 64.3672 9.49402C64.3672 9.41602 64.3912 9.35302 64.4392 9.30502C64.4872 9.25702 64.5772 9.20902 64.7092 9.16102L66.2212 8.63002C66.4132 8.56402 66.5662 8.51902 66.6802 8.49502C66.7942 8.46502 66.8902 8.45002 66.9682 8.45002C67.1242 8.45002 67.2412 8.49202 67.3192 8.57602C67.3972 8.65402 67.4362 8.76202 67.4362 8.90002ZM66.2932 6.77602C65.9032 6.77602 65.5882 6.67102 65.3482 6.46102C65.1142 6.24502 64.9972 5.96902 64.9972 5.63302C64.9972 5.29702 65.1142 5.02402 65.3482 4.81402C65.5882 4.60402 65.9032 4.49902 66.2932 4.49902C66.6832 4.49902 66.9982 4.60402 67.2382 4.81402C67.4782 5.02402 67.5982 5.29702 67.5982 5.63302C67.5982 5.96902 67.4782 6.24502 67.2382 6.46102C66.9982 6.67102 66.6832 6.77602 66.2932 6.77602Z" fill="black"/>
<path d="M70.3027 9.2871L69.8167 9.1701C69.6667 9.1281 69.5647 9.0801 69.5107 9.0261C69.4567 8.9721 69.4297 8.9091 69.4297 8.8371C69.4297 8.7471 69.4597 8.6781 69.5197 8.6301C69.5857 8.5821 69.6727 8.5581 69.7807 8.5581H70.3657C70.5217 8.5581 70.6477 8.5341 70.7437 8.4861C70.8397 8.4381 70.9237 8.3481 70.9957 8.2161L71.7337 6.8931C71.8237 6.7551 71.9107 6.6561 71.9947 6.5961C72.0847 6.5361 72.1777 6.5061 72.2737 6.5061C72.3757 6.5061 72.4537 6.5391 72.5077 6.6051C72.5617 6.6651 72.5887 6.7521 72.5887 6.8661V14.7861C72.5887 15.2001 72.6727 15.5181 72.8407 15.7401C73.0147 15.9561 73.2547 16.0641 73.5607 16.0641C73.7767 16.0641 73.9447 16.0281 74.0647 15.9561C74.1907 15.8841 74.2867 15.8001 74.3527 15.7041C74.4247 15.6021 74.4907 15.5151 74.5507 15.4431C74.6167 15.3651 74.6977 15.3231 74.7937 15.3171C74.8657 15.3111 74.9197 15.3321 74.9557 15.3801C74.9977 15.4281 75.0187 15.5061 75.0187 15.6141C75.0127 15.8781 74.9167 16.1271 74.7307 16.3611C74.5507 16.5951 74.2987 16.7871 73.9747 16.9371C73.6507 17.0811 73.2787 17.1531 72.8587 17.1531C72.1987 17.1531 71.6737 16.9821 71.2837 16.6401C70.8937 16.2981 70.6987 15.7791 70.6987 15.0831V9.8001C70.6987 9.6561 70.6687 9.5481 70.6087 9.4761C70.5547 9.3981 70.4527 9.3351 70.3027 9.2871ZM71.7517 9.2511V8.5581H74.5777C74.6977 8.5581 74.7877 8.5821 74.8477 8.6301C74.9137 8.6721 74.9467 8.7381 74.9467 8.8281C74.9467 8.9541 74.8837 9.0561 74.7577 9.1341C74.6377 9.2121 74.4427 9.2511 74.1727 9.2511H71.7517Z" fill="black"/>
<path d="M0 5C0 2.23858 2.23858 0 5 0H10V5C10 7.76142 7.76142 10 5 10H0V5Z" fill="black"/>
<path d="M0 21H10V16C10 13.2386 7.76142 11 5 11H0V21Z" fill="black"/>
<path d="M21 5C21 2.23858 18.7614 0 16 0H11V5C11 7.76142 13.2386 10 16 10H21V5Z" fill="black"/>
<path d="M21 16C21 18.7614 18.7614 21 16 21H11V16C11 13.2386 13.2386 11 16 11H21V16Z" fill="black"/>
</g>
<defs>
<clipPath id="clip0_183_413">
<rect width="76" height="21" fill="white"/>
</clipPath>
</defs>
</svg>
